<svg xmlns="http://www.w3.org/2000/svg" width="512" height="512" viewBox="0 0 512 512"><path fill="#71C598" d="M404.8,438c-24.7-15-53.9-21.6-81.4-29.6c-14.8-4.3-29.9-8.3-45.3-9.5c-15.9-1.3-32.2-0.3-48.1,0.5c-30.6,1.6-61.5,5.3-91,13.8c-14.3,4.1-29,8.9-41.6,17c-9.7,6.2-18.6,13.5-27.8,20.4c0.1,0,0.2,0.1,0.4,0.1c3.1,1.2,6.3,2,9.5,2.6c6.6,1.1,13.2,1.5,19.9,2c15.6,1.1,31.2,1.8,46.8,2.1c31.8,0.5,63.6,0.3,95.4,0.1c32.4-0.1,64.8-0.5,97.1-1.6c15.7-0.5,31.3-2,46.8-4.7c10.1-1.7,20.2-4.1,30.4-5.1C412.4,443.1,408.7,440.3,404.8,438z"/><path fill="#C56528" d="M333.8 399.4c0 .1 0 .3 0 .4 0-.2 0-.3 0-.5C333.8 399.4 333.8 399.4 333.8 399.4zM160 386.9c0-.6-.1-1.3-.1-1.9-13.9 2.3-28.3 3-42.2.8.2 7.4.7 14.9.8 22.3 12.7-4.7 26-8.1 39.2-10.8-.5-2 .4-4 1.9-5.5.1-.1.1-.3.2-.4.1-.5.2-1 .3-1.6C160.1 388.8 160 387.8 160 386.9z"/><path fill="#71C598" d="M187,331.2c7.4-6.3,14.6-13.1,21.4-20.2c-1.9,0.6-3.7,1.2-5.5,1.6c-6.7,1.7-13.7,0.9-20.5,0.8c-5-0.1-7.5-5.1-4.6-9.1c1.4-2,2.9-3.9,4.3-5.9c-2,0-3.8-1.1-4.4-3.7c-0.2-0.7-2.8-2.4-4.9-3.4c-3.2-1.6-6.5-3-9.8-4.5c-6.2-3-12.4-6.6-15.3-13.1c-1-2.3,0.2-5.1,2.1-6.4c5.7-4,11.8-7.6,17.8-11.2c-6.1-4.3-13.2-7.4-18.3-13c-7-7.6-11.7-17.1-15-26.8c-3.6-10.7-6.8-21.2-9.3-32.2c-1.8-7.7-3.6-15.5-6-23c-4.8,17-8.5,34.4-16.1,50.4c-8.5,18.1-17.2,36.4-31.1,50.8c5.8,1.3,11.8,1.6,17.3-0.6c3-1.2,7.5,1.2,7.3,4.8c-0.6,11.5-10,22-18,29.6c-8.3,7.8-17.8,13.4-27.3,19.3c8.9,3.4,19.5,4.5,28.1,2.3c5.3-1.3,9.6,4.3,6,8.8c-9.2,11.3-20.6,19.1-32.7,26.5c19.2,11.1,41.6,17.4,63.1,21.2c14.5,2.5,29.5,2.2,44-0.4c9.9-1.8,22.6-3,30.6-9.9c-5.2-1.3-10-3.5-13.2-7.5C168.9,347.1,180.1,337.1,187,331.2z"/><path fill="#C56528" d="M333.8,398.6c0,0,0,0.1,0,0.1c0,0.2,0,0.4,0,0.6c0.3-1.1,1-2.1,2.1-2.9C334.5,397.5,334,398.1,333.8,398.6z"/><path fill="#3AB37C" d="M446.9,346.4c-0.4-1.1-0.5-1.3-1.4-2.5c-4-5.5-10-9.8-15.6-13.6c-11.1-7.7-23.5-13.5-34.6-21.1c-3-2-2.1-6.9,0.6-8.7c4.5-3,9.6-4.6,14.6-6.6c2.7-1.1,6.5-2.1,5.2-5.7c-2.5-6.9-8.4-12.1-13.5-17.1c-4.8-4.9-9.6-9.9-12.9-16c-1.4-2.7-1.2-5.8,1.5-7.6c4.8-3.4,10.4-3.5,15.8-5.3c2-0.7,4.1-1.2,2.4-3.4c-1.7-2.2-3.8-3.9-5.8-5.8c-5.5-5.1-10.3-10.8-15.7-15.9c-5.5-5.2-11.3-10.1-17.2-14.9c-2.5-2.1-2.1-5.4-0.5-7.8c2.2-3.2,5.3-5.3,8.3-7.6c2.6-2,2.7-1.7,0.5-4.2c-7-8.1-18-11.4-25.3-19.4c-3.4-3.7-1.6-8.7,3.2-9.6c1.7-0.3,12.5-1.6,10.9-4.7c-1.1-2.3-3.5-4-5.3-5.8c-2.5-2.4-4.9-4.9-7.3-7.5c-9.1-9.9-17-20.7-25.6-30.9c-14.7-17.5-32-32.5-43.3-52.4c-0.5-0.1-1-0.3-1.5-0.6c-0.1,0.2-0.2,0.4-0.3,0.6c-2.1,4.5-5,8.4-7.7,12.5c-6.2,9.3-11.7,19.3-18.8,28.1c-11,13.7-22.7,27-31.7,42.1c7.4-0.2,15.5-0.6,21.1,3.6c6.1,4.6,3.3,11.7-0.2,16.9c-9,13-22.8,21.8-32.6,34c8.2-0.2,16.4-0.4,24.6,0.3c3.1,0.3,4.8,3.7,4.3,6.4c-2,13.3-15.2,22.4-23.5,31.7c-5.9,6.6-15.2,13.9-19.4,22.6c10.1-0.8,25.3-2.1,25.4,8.6c0.1,9.5-9.9,16.6-15.6,22.9c-6.1,6.7-11.9,13.6-17.4,20.8c4.4-0.1,8.7-0.5,13-1.9c6.1-1.9,11.7-3.7,18.2-3.1c4.3,0.4,5.5,6.1,3.1,9c-8.6,10.2-18.2,19.4-28,28.4c-3.8,3.5-8.2,6.7-11.6,10.7c-0.4,0.5-2.9,3.1-2.3,3.8c1.2,1.5,3.9,2.6,5.7,3.1c10.5,3.1,21.5,1.8,32.2,0.8c12.8-1.3,25.6-0.9,38.4-0.9c32.7,0,65.3,3.2,98,3c15.1-0.1,30-2.9,45.1-3.2c12.3-0.2,26.4,2.2,38.2-2c1.2-0.4,3.2-1.5,3.6-1.9c0.1-0.2,0.9-1.5,0.5-0.5c0.1-0.1,0.1-0.2,0.1-0.3c0,0,0-0.1,0-0.1C447.1,347.1,447.1,346.9,446.9,346.4z"/><path fill="#C56528" d="M333.8,398.6c0-1.3,0-2.5-0.1-3.8c-0.1-3.1-0.3-6.2-0.4-9.3c-0.3-5.7-0.7-11.4-0.8-17.1c0-0.9,0.2-1.7,0.5-2.5c-19-0.6-38-1.6-57-2.1c0,1.1,0,2.3,0.1,3.4c0.2,3.1,0.6,6.2,1,9.3c0.6,3.8,1,7.9,2.3,11.6c8.8,0.7,17.5,2,26.3,4.1c9.4,2.2,18.7,5,27.9,7.7c0-0.2,0.1-0.4,0.1-0.6C333.7,399.2,333.7,398.9,333.8,398.6z"/><path fill="#231F20" d="M333.8,398.6c-0.1,0.3-0.1,0.6,0,0.8c0,0,0-0.1,0-0.1c0-0.2,0-0.4,0-0.6C333.8,398.7,333.8,398.6,333.8,398.6z"/><path fill="#231F20" d="M446.2,328.8c-7.7-6.6-16.5-12-25.2-17.2c-3.5-2.1-7-4.1-10.5-6.1c8.2-3.2,16.6-6.1,16.5-16.6c-0.1-7.6-6.4-14.5-11.1-19.7c-4.6-5.1-9.8-9.6-13.9-15c4.2-1.3,8.9-1.8,12.7-3.7c7.1-3.6,7.4-12,3.5-18c-2-3-5-5.5-7.7-7.9c-3.8-3.4-7.1-7.4-10.7-11c-5.7-5.7-11.7-11-17.9-16.2c5.2-4.6,11.6-8.3,8.4-16.8c-3.4-9.1-12.9-13.7-21.2-19c1.3-0.5,2.7-1.1,3.9-1.9c5.3-3.2,6.8-10.4,4.3-15.7c-2.7-5.6-8.4-9.7-12.6-14.1c-5.9-6.1-11.3-12.5-16.6-19.1c-9.3-11.6-18.7-22.7-29-33.5c-9.9-10.5-19.6-21.5-25.8-34.7c2.9-3.5-0.5-10.4-6.2-8.8c-8.8,2.6-10.8,11.9-15.4,18.6c-6.8,9.9-12.6,20.9-20,30.4c-13.9,17.8-29.4,34.5-39.7,54.8c-1.5,3,0.3,7.4,3.9,7.8c3.9,0.5,7.7,0.6,11.6,0.6c3.8,0,8.2-0.4,11.9,0.8c-0.4,0.8-0.9,1.6-1.4,2.3c-2.2,3.2-4.7,6.1-7.4,8.9c-10.9,11.4-23.8,20.5-31.6,34.6c-2.2,3.9,1.4,7.9,5.4,7.9c8.6,0,17.3-0.7,25.9-0.4c-1.9,3.2-4.7,6.1-7.2,8.7c-4.4,4.8-9.2,9.3-13.6,14.1c-8.4,9.3-20.2,18.9-22,32.1c-0.4,2.7,1.2,6.2,4.3,6.4c5.2,0.4,10.4-0.1,15.7-0.3c2.3-0.1,4.5-0.2,6.7,0.1c-1.1,2-3.4,4.1-4.8,5.4c-3.8,3.9-7.6,7.9-11.2,12c-3.6,4-7,8.1-10.3,12.2c-1.5-5.5-8.4-8.4-13.1-10.6c-3.7-1.7-10.3-3.7-14.2-6.9c6.3-4.1,12.9-7.8,19.3-11.8c3.3-2,2.9-6.2,0.6-8.7c-6.2-6.7-14.8-10.1-21.8-15.8c-7.7-6.2-11.6-16.8-14.7-25.8c-7-20.7-10.1-42.6-18-63c-1-2.7-3.4-3.7-5.6-3.5c-2.8-1.7-7.6-1-9,3.2c-6,18.4-8.8,38.4-17.2,56c-9.6,20.2-18.7,42.1-36.5,56.5c-4,3.2-2.6,8.4,2,10c7.2,2.4,15,4.3,22.7,3.9c-1,1.4-2,2.8-2.9,3.9c-3.2,4.3-6.9,8.4-10.9,11.9c-9.7,8.5-21.1,14.2-31.9,21.3c-3.8,2.5-2.6,7.3,0.6,9.5c8.1,5.4,18.8,8.4,29.2,8.8c-8.4,7.3-18,12.9-27.8,18.7c-2.8,1.7-3.4,6.7-0.6,8.7c20.2,13.6,44.2,21.9,68.2,26.7c0.2,9.5,0.9,19,1,28.6c0,0.1,0,0.1,0,0.2c-8.1,3.6-15.8,7.9-23.1,12.9c-9.1,6.3-17.5,13.5-26.5,19.9c-2.3,1.6-2.7,4.1-2,6.2c-1.2,2.7,0.4,5.5,2.7,6.9c1.5,1,3.3,0.8,4.9,1.4c3,1.1,5.9,2.2,8.9,3.1c6.9,1.9,14.3,2.3,21.4,2.8c15.1,1,30.2,1.9,45.4,2.3c32.4,0.8,64.8,0.4,97.1,0.3c33-0.1,66.1-0.5,99.1-1.5c15.8-0.5,31.5-1.7,47.1-4.2c14.5-2.3,29-6.3,43.8-6.3h0.1c6.6,0,6.3-9.5,0.5-10.8c0.7-1.9,0.5-4.1-1.5-5.8c-21.3-18.7-48.3-27.1-75-34.8c-2.2-0.6-4.4-1.3-6.6-1.9c1.9-4,0.6-10.4,0.5-14.1c-0.3-7.1-1-14.3-1-21.4c0-0.5-0.1-0.9-0.2-1.3c1.9,0,3.7,0.1,5.6,0.1c15.8,0.3,31.2-1,46.8-2.4c13.1-1.2,26.2,0.3,39.2-0.9c8.3-0.8,22.3-3.8,23-14.4C458.5,340.3,452,333.8,446.2,328.8z M52.5,353.1c12.1-7.4,23.5-15.2,32.7-26.5c3.7-4.5-0.7-10.1-6-8.8c-8.6,2.1-19.1,1-28.1-2.3c9.5-5.9,19-11.6,27.3-19.3c8.1-7.5,17.5-18,18-29.6c0.2-3.5-4.3-6-7.3-4.8c-5.6,2.2-11.5,1.9-17.3,0.6c13.9-14.4,22.6-32.7,31.1-50.8c7.5-16,11.3-33.4,16.1-50.4c2.3,7.6,4.2,15.3,6,23c2.6,11,5.7,21.5,9.3,32.2c3.3,9.8,8,19.2,15,26.8c5.1,5.5,12.2,8.7,18.3,13c-6,3.6-12,7.2-17.8,11.2c-1.9,1.3-3.1,4.1-2.1,6.4c3,6.5,9.1,10.1,15.3,13.1c3.2,1.6,6.5,3,9.8,4.5c2,1,4.7,2.6,4.9,3.4c0.6,2.6,2.4,3.7,4.4,3.7c-1.5,1.9-2.9,3.9-4.3,5.9c-2.9,4-0.5,9.1,4.6,9.1c6.8,0.1,13.8,0.8,20.5-0.8c1.7-0.4,3.6-1,5.5-1.6c-6.8,7.1-14,13.9-21.4,20.2c-6.9,5.9-18.1,15.8-10.1,25.3c3.3,3.9,8,6.2,13.2,7.5c-8,6.9-20.7,8.1-30.6,9.9c-14.5,2.6-29.4,2.9-44,0.4C94,370.5,71.6,364.2,52.5,353.1z M201.6,365.5c3.2,0.1,6.3,0.1,9,0c5.9-0.2,11.8-0.9,17.6-1.5c7.4-0.7,14.9-0.5,22.4-0.5c4.8,0,9.5,0.1,14.3,0.1c-0.1,3,0.3,6.1,0.5,8.5c0.5,4.9,1,10.4,2.3,15.5c-2.6-0.1-5.3-0.1-7.9-0.1c-30.2,0.2-60.2,2.2-89.9,7.4c1.3-3.7,1.1-7.9,0.8-12.1c10.8-2.1,21.7-5,29.4-13.3C201.4,368.3,201.8,366.8,201.6,365.5z M157.7,397.3c-13.2,2.7-26.5,6.1-39.2,10.8c-0.2-7.5-0.6-14.9-0.8-22.3c14,2.1,28.3,1.5,42.2-0.8c0,0.6,0.1,1.3,0.1,1.9c0.1,1,0.1,1.9,0,2.9c-0.1,0.5-0.2,1.1-0.3,1.6c0,0.2-0.1,0.3-0.2,0.4C158,393.3,157.2,395.3,157.7,397.3z M404.8,438c3.9,2.4,7.6,5.1,11.1,8.1c-10.2,1-20.3,3.4-30.4,5.1c-15.5,2.7-31.1,4.1-46.8,4.7c-32.4,1.1-64.8,1.4-97.1,1.6c-31.8,0.1-63.6,0.4-95.4-0.1c-15.6-0.2-31.2-1-46.8-2.1c-6.6-0.5-13.3-0.9-19.9-2c-3.2-0.6-6.4-1.4-9.5-2.6c-0.1,0-0.2-0.1-0.4-0.1c9.2-6.9,18.1-14.2,27.8-20.4c12.7-8,27.3-12.8,41.6-17c29.5-8.5,60.4-12.2,91-13.8c15.9-0.8,32.2-1.7,48.1-0.5c15.4,1.2,30.5,5.2,45.3,9.5C350.9,416.4,380.1,422.9,404.8,438z M333.3,385.5c0.2,3.1,0.3,6.2,0.4,9.3c0,1.3,0.1,2.5,0.1,3.8c0.2-0.5,0.7-1.1,2.1-2.2c-1.2,0.8-1.8,1.8-2.1,2.9c0,0.2,0,0.3,0,0.5c0-0.1,0-0.3,0-0.4c-0.1,0.2-0.1,0.4-0.1,0.6c-9.2-2.8-18.5-5.5-27.9-7.7c-8.8-2.1-17.5-3.4-26.3-4.1c-1.3-3.7-1.7-7.9-2.3-11.6c-0.5-3.1-0.8-6.2-1-9.3c-0.1-1.1-0.1-2.3-0.1-3.4c19,0.5,38,1.5,57,2.1c-0.3,0.7-0.5,1.5-0.5,2.5C332.6,374.1,333,379.8,333.3,385.5z M447.1,347.4c0,0.1,0,0.1,0,0.1c0,0.1-0.1,0.2-0.1,0.3c0.5-0.9-0.3,0.4-0.5,0.5c-0.4,0.4-2.4,1.5-3.6,1.9c-11.8,4.3-25.9,1.8-38.2,2c-15.1,0.2-30,3.1-45.1,3.2c-32.7,0.2-65.3-3-98-3c-12.8,0-25.7-0.4-38.4,0.9c-10.7,1.1-21.7,2.3-32.2-0.8c-1.8-0.5-4.5-1.6-5.7-3.1c-0.6-0.8,1.8-3.3,2.3-3.8c3.4-4,7.7-7.2,11.6-10.7c9.8-9,19.4-18.2,28-28.4c2.5-2.9,1.3-8.6-3.1-9c-6.5-0.6-12,1.3-18.2,3.1c-4.3,1.3-8.7,1.8-13,1.9c5.5-7.2,11.3-14.1,17.4-20.8c5.7-6.3,15.7-13.4,15.6-22.9c-0.1-10.7-15.4-9.3-25.4-8.6c4.2-8.6,13.4-15.9,19.4-22.6c8.4-9.4,21.6-18.4,23.5-31.7c0.4-2.7-1.3-6.2-4.3-6.4c-8.2-0.7-16.4-0.5-24.6-0.3c9.8-12.2,23.6-21.1,32.6-34c3.6-5.2,6.3-12.3,0.2-16.9c-5.6-4.2-13.7-3.8-21.1-3.6c9-15.1,20.7-28.3,31.7-42.1c7-8.8,12.6-18.7,18.8-28.1c2.8-4.1,5.6-8,7.7-12.5c0.1-0.2,0.2-0.4,0.3-0.6c0.5,0.3,1,0.5,1.5,0.6c11.3,19.9,28.6,34.9,43.3,52.4c8.6,10.3,16.5,21.1,25.6,30.9c2.4,2.6,4.8,5.1,7.3,7.5c1.8,1.8,4.2,3.4,5.3,5.8c1.5,3.2-9.2,4.4-10.9,4.7c-4.9,0.9-6.6,5.9-3.2,9.6c7.3,7.9,18.3,11.2,25.3,19.4c2.2,2.6,2.1,2.2-0.5,4.2c-3,2.3-6.1,4.5-8.3,7.6c-1.6,2.4-2,5.7,0.5,7.8c5.9,4.8,11.6,9.8,17.2,14.9c5.5,5.1,10.3,10.8,15.7,15.9c2,1.9,4.1,3.6,5.8,5.8c1.7,2.2-0.3,2.7-2.4,3.4c-5.3,1.9-11,2-15.8,5.3c-2.6,1.9-2.9,4.9-1.5,7.6c3.2,6.1,8,11.1,12.9,16c5,5.1,11,10.2,13.5,17.1c1.3,3.6-2.5,4.6-5.2,5.7c-5,2-10.1,3.6-14.6,6.6c-2.7,1.8-3.5,6.7-0.6,8.7c11.1,7.7,23.5,13.4,34.6,21.1c5.6,3.8,11.6,8.1,15.6,13.6c0.8,1.1,1,1.4,1.4,2.5C447.1,346.9,447.1,347.1,447.1,347.4z"/></svg>